<svg class="icon" viewBox="0 0 1024 1024" xmlns="http://www.w3.org/2000/svg" width="128" height="128"><defs><style/></defs><path d="M234.667 469.333a21.333 21.333 0 0 0-21.334 21.334V832a21.333 21.333 0 0 0 21.334 21.333h554.666A21.333 21.333 0 0 0 810.667 832V490.667a21.333 21.333 0 0 0-21.334-21.334H234.667zm0-42.666h554.666a64 64 0 0 1 64 64V832a64 64 0 0 1-64 64H234.667a64 64 0 0 1-64-64V490.667a64 64 0 0 1 64-64z"/><path d="M405.333 682.667h213.334v42.666H405.333v-42.666zM704 448h-42.667V320a149.333 149.333 0 0 0-298.666 0v128H320V320a192 192 0 0 1 384 0v128z"/></svg>